<svg id="Layer_1" data-name="Layer 1" xmlns="http://www.w3.org/2000/svg" viewBox="0 0 500 121.45"><defs><style>.cls-1{fill:#204375;}.cls-2{fill:#afe89a;}.cls-2,.cls-3,.cls-4{opacity:0.7;}.cls-3{fill:#ff6d00;}.cls-4{fill:#98a7f4;}</style></defs><path class="cls-1" d="M108.37,74.47c0,8.84-7,13.25-18.14,13.25H56.69V39.42H88.85c9.8,0,16.76,4.14,16.76,12.28,0,5.52-3.24,10.63-10.35,11.18C102.79,63.37,108.37,66.4,108.37,74.47ZM62.42,60.4H88c6.9,0,11.8-1.8,11.8-7.87s-4.9-7.86-11.8-7.86H62.42Zm40,13.66c0-6-4.9-8.42-13.18-8.42H62.42V82.48H89.19C97.47,82.48,102.37,80,102.37,74.06Z"/><path class="cls-1" d="M196.79,39.42l20.29,26.15,20.15-26.15h6.9l-24.22,31.4v16.9h-5.8V70.82l-24.29-31.4Z"/><path class="cls-1" d="M251.72,63.57c0-15.73,11-25.6,29.39-25.6s29.4,9.87,29.4,25.6-11,25.6-29.4,25.6S251.72,79.3,251.72,63.57Zm52.85,0c0-13-9.24-20.21-23.46-20.21s-23.46,7.24-23.46,20.21,9.25,20.22,23.46,20.22S304.57,76.54,304.57,63.57Z"/><path class="cls-1" d="M379.44,39.42v48.3h-5.11L333.76,46.81V87.72H328.1V39.42h6.28l39.4,39.82V39.42Z"/><path class="cls-1" d="M449.71,63.57c0,14.84-11.32,24.15-29,24.15H397.27V39.42h23.46C438.39,39.42,449.71,48.74,449.71,63.57Zm-5.94,0c0-12.35-9.73-18.77-23.46-18.77H403.06V82.34h17.25C434,82.34,443.77,75.92,443.77,63.57Z"/><polygon class="cls-2" points="166.97 69.15 151.69 60.34 136.43 69.15 121.16 77.97 136.43 86.79 151.69 95.6 166.97 86.79 182.24 77.97 166.97 69.15"/><polygon class="cls-3" points="166.97 52.05 151.69 43.24 136.43 52.05 121.16 60.87 136.43 69.69 151.69 78.5 166.97 69.69 182.24 60.87 166.97 52.05"/><path class="cls-1" d="M151.75,65l30.49-18.4V42.71L151.69,60.34,121.15,42.7V82.45l30.63,18.07,30.46-18.59V78c-1.27.75-29.57,17.07-30.5,17.61L124.93,80.14V67.57l26.76,16.12s30.38-18.23,30.55-18.35V60.87c-.41.17-30.55,17.63-30.55,17.63L124.93,62.94V49.55Z"/><polygon class="cls-4" points="166.97 33.89 151.69 25.07 136.43 33.89 121.16 42.7 136.43 51.52 151.69 60.34 166.97 51.52 182.24 42.7 166.97 33.89"/></svg>